# xmcd
#
# Track frame offsets: 
#        150
#        10930
#        22333
#        34618
#        51123
#        62522
#        72485
#        84895
#        95550
#        105315
#
# Disc length: 1536 seconds
#
# Revision: 0
# Processed by: cddbd v1.5.2PL0 Copyright (c) Steve Scherf et al.
# Submitted via: ExactAudioCopy v0.95b4
#
DISCID=7805fe0a
DTITLE=Liz Anderson - Husband Hunting
DYEAR=1970
DGENRE=Country
TTITLE0=Husband Hunting
TTITLE1=Show and Tell
TTITLE2=Okie From Muskogie
TTITLE3=Born To Lose
TTITLE4=Only For Me
TTITLE5=That's a No No
TTITLE6=Don't Leave the Leavin' Up To
TTITLE7=Down In the Boondocks
TTITLE8=All You Add Is Love
TTITLE9=Wee Little Kittins
EXTD=
EXTT0=
EXTT1=
EXTT2=
EXTT3=
EXTT4=
EXTT5=
EXTT6=
EXTT7=
EXTT8=
EXTT9=
PLAYORDER=
